<?xml version="1.0" encoding="UTF-8"?>
<svg width="178px" height="178px" viewBox="0 0 178 178" version="1.1" xmlns="http://www.w3.org/2000/svg" xmlns:xlink="http://www.w3.org/1999/xlink">
    <!-- Generator: Sketch 55.2 (78181) - https://sketchapp.com -->
    <title>icon-welcome</title>
    <desc>Created with Sketch.</desc>
    <g id="Selected-Cards" stroke="none" stroke-width="1" fill="none" fill-rule="evenodd">
        <g id="New-User-1" transform="translate(-91.000000, -120.000000)">
            <g id="icon-welcome" transform="translate(91.000000, 120.000000)">
                <circle id="Oval" fill="#FFFFFF" cx="89" cy="89" r="89"></circle>
                <g id="door-open" transform="translate(30.000000, 32.000000)" fill="#FFC627" fill-rule="nonzero">
                    <path d="M115.05,83.1249774 L100.3,83.1249774 L100.3,21.0501523 C100.3,15.9921348 96.3304063,11.8748419 91.45,11.8748419 L70.8,11.8748419 L70.8,23.7498644 L88.5,23.7498644 L88.5,95 L115.05,95 C116.679875,95 118,93.6714818 118,92.0312444 L118,86.0937331 C118,84.4534956 116.679875,83.1249774 115.05,83.1249774 Z M57.56925,0.187221959 L22.16925,9.41634108 C19.5419063,10.1010104 17.7,12.5613666 17.7,15.3853954 L17.7,83.1249774 L2.95,83.1249774 C1.320125,83.1249774 0,84.4534956 0,86.0937331 L0,92.0312444 C0,93.6714818 1.320125,95 2.95,95 L64.9,95 L64.9,6.15627628 C64.9,2.1521671 61.293625,-0.785045516 57.56925,0.187221959 Z M48.675,53.4374209 C46.2320312,53.4374209 44.25,50.7785291 44.25,47.4999096 C44.25,44.2212901 46.2320312,41.5623983 48.675,41.5623983 C51.1179687,41.5623983 53.1,44.2212901 53.1,47.4999096 C53.1,50.7785291 51.1179687,53.4374209 48.675,53.4374209 Z" id="Shape"></path>
                </g>
            </g>
        </g>
    </g>
</svg>