<?xml version="1.0" encoding="UTF-8"?>
<svg width="43px" height="61px" viewBox="0 0 43 61" version="1.1" xmlns="http://www.w3.org/2000/svg" xmlns:xlink="http://www.w3.org/1999/xlink">
    <!-- Generator: Sketch 59 (86127) - https://sketch.com -->
    <title>sdr-hand</title>
    <desc>Created with Sketch.</desc>
    <g id="Phase-1-sdr-corrections" stroke="none" stroke-width="1" fill="none" fill-rule="evenodd">
        <g id="1.1-home-login" transform="translate(-286.000000, -834.000000)" fill="#000000">
            <g id="sdr-hand" transform="translate(286.000000, 834.000000)">
                <path d="M25.6187576,0.12228817 C24.6103498,-0.107719008 23.7817977,-0.0130386338 23.1590234,0.404393748 C22.4741638,0.862956445 22.2555848,1.57717228 22.2096608,1.75991992 L22.211901,1.76798469 L22.1933393,1.83250283 C22.178298,1.88540771 20.1728434,8.74417013 19.0596264,12.3802513 L18.9815396,12.6413885 C17.8705629,16.2811795 16.7226229,20.0437163 16.0243221,22.5962153 L16,22.6847665 L21.3927896,25 C21.3927896,25 23.5699392,17.9501026 24.6164304,14.2867625 L24.7436414,13.8177156 C25.611717,10.7684269 27.2324982,5.2684165 27.7082196,3.65530165 L27.9532009,2.74849916 C27.9572013,2.73527294 28.1408973,2.08863986 27.7519034,1.4200706 C27.390912,0.798922189 26.6727694,0.362134364 25.6187576,0.12228817" id="Fill-17"></path>
                <path d="M30.8002697,20.7770581 C30.2501355,20.2908844 29.4990152,20 28.7913599,20 C28.4742554,20 27.6787183,20.0665722 27.1439713,20.6788396 L27.1434954,20.6793315 L26.3130593,21.623312 C25.4650151,22.58123 23.8312689,24.6682517 23.8312689,24.6682517 L23.9878382,24.7476136 C24.6880379,25.0701444 24.8139913,25.1280261 25.0362341,25.3772619 C25.2765609,25.6450264 25.3622219,26.4499596 25.2240538,27.1356859 C24.9075839,28.7181691 24.2053221,30.6105574 21.558079,31.2003607 C21.0203181,31.3189117 20.5461684,31.3925346 20.1080281,31.4261487 L20,31.4341832 L20.0136423,31.5458474 C20.0818539,32.0918706 20.3500998,32.6747871 20.6659352,32.963048 C21.0173041,33.2813155 22.0420638,33.8502946 22.5322353,33.9588433 C22.644705,33.9863904 22.7674858,34 22.9023226,34 C23.718006,34 24.7365791,33.4849674 25.2213571,32.827772 L29.427631,27.1460161 C29.9798274,26.3976529 30.6808201,25.4469496 31.6391132,24.153711 C31.8753156,23.8367552 32,23.455031 32,23.048875 C32,22.2731287 31.5739157,21.4662278 30.8002697,20.7770581" id="Fill-18"></path>
                <path d="M12.5071413,12.0941212 C12.5071413,12.0923022 10.9829467,2.01907361 10.9747864,1.96483379 C10.9725015,1.94515532 10.8856751,1.15057495 10.1887792,0.581387512 C9.59731532,0.097859313 8.75728647,-0.0850347321 7.69350019,0.0363434136 C6.65125729,0.154910349 5.89446426,0.520202343 5.44335882,1.12180138 C4.88078267,1.87305604 5.01314393,2.72981376 5.01444959,2.73841276 C5.01444959,2.73841276 6.32043575,10.2289657 6.87991096,13.332046 L6.87991096,13.3315499 C7.25365606,15.3943169 7.61646627,17.4081358 7.95675384,19.3439022 L7.96719912,19.4009532 L14,22 L13.9751925,21.8129718 C13.5562389,18.6505254 13.0230401,15.3175874 12.5071413,12.0941212" id="Fill-19"></path>
                <path d="M41.7772926,17.484905 C41.0982162,17.0598846 40.4360563,16.912642 39.8049906,17.0495791 C38.9428939,17.2381995 38.4444213,17.9074271 38.35275,18.03968 C38.2488344,18.1641257 36.1033398,20.6802091 35.2016102,21.7802343 C32.5468486,25.0048932 31.4380933,26.3619294 29.4230974,28.9254801 L27.6313992,31.1508258 C27.138082,31.7710246 26.5550269,32.5048952 25.6373474,33.66566 C24.9289492,34.5653542 23.4984583,35.2436381 22.3097928,35.2436381 C22.1134003,35.2436381 21.9089524,35.2220904 21.6854936,35.1777459 C20.9255403,35.0201979 19.7197972,34.380169 19.2269634,33.9546802 C18.6226418,33.4395654 18.1841019,32.51442 18.1360913,31.6542299 L18.1262636,31.4820045 L17.9503321,31.4587392 C16.0717958,31.2089109 13.9517565,30.1516687 10.3884987,27.6872686 L10.1943618,27.5528297 L9.00505183,29.5787812 L9.24333271,29.6635667 C14.7875924,31.6465789 18.558198,35.9173938 20.4504286,42.3560939 C20.4873226,42.4875661 20.4700839,42.6210681 20.4033846,42.7342715 C20.3374908,42.8471627 20.2256809,42.9311675 20.0971155,42.9647382 L19.9398727,43.0043984 C19.7056196,43.0654502 19.4586388,42.9302306 19.3932283,42.7024184 C16.6983505,33.4618938 10.6599681,31.3157125 8.67542189,30.6107282 C8.00488434,30.3713615 7.68121545,30.2391086 7.65769346,29.8462536 C7.65721014,29.7955072 7.67154888,29.6490454 7.85682475,29.3544041 L9.84410987,25.9717288 L10.3449992,26.3278903 C14.3973853,29.1834279 16.5954015,30.2967253 18.4537991,30.43538 C18.8258008,30.4634857 19.2168135,30.453961 19.6527757,30.4083673 C19.9841778,30.3640228 20.2997912,30.3092167 20.6945094,30.2308331 C22.6755112,29.8195532 23.2007281,28.5693187 23.4731641,27.2792677 C23.5322913,26.9958687 23.5434079,26.760874 23.5047416,26.5997347 L23.4799307,26.4954314 L7.2902028,19.8279822 C6.88855693,19.6694974 6.43261718,19.818926 6.18370307,20.1914824 L0.486550552,30.6305584 C0.435962183,30.7214334 0,31.6069186 0,32.2775515 C0,32.8929098 0.40744581,33.6133522 0.40744581,33.6133522 C1.72902666,35.6789639 6.54990486,42.1785597 10.6369295,46.1128872 C10.9887925,46.4545274 10.8009389,47.6605735 10.341777,50.4044691 C10.2085395,51.1986108 10.0637021,52.0548974 9.92853122,52.95506 C9.42683638,56.2968259 9.09446758,60.0266064 9.01214065,60.993442 L26.4111561,61 C26.4706055,59.9059081 26.7154919,54.6662278 26.2471467,49.5018082 C26.2044527,49.0112078 26.3760343,48.4203639 26.6545925,48.0955871 C29.915609,44.3545643 31.2207567,38.3007559 31.630458,35.871644 L31.6481801,35.7640617 C31.7126238,35.3555924 31.8010729,34.7953524 31.9620213,34.3650232 L32.0064875,34.2793008 C32.0482148,34.1988873 32.0833367,34.1337758 32.1232918,34.0774083 L32.5658595,33.4395654 C34.1057437,31.2184356 35.1184777,29.758033 37.0099027,27.4756952 C38.8923056,25.1999155 42.4927796,20.5329665 42.5203294,20.4967414 C42.5567401,20.4550513 43.0980679,19.8473439 42.9843246,19.0466442 C42.8997421,18.4592354 42.4945518,17.9336591 41.7772926,17.484905" id="Fill-20"></path>
            </g>
        </g>
    </g>
</svg>