<?xml version="1.0" encoding="UTF-8"?>
<svg width="15px" height="16px" viewBox="0 0 15 16" version="1.1" xmlns="http://www.w3.org/2000/svg" xmlns:xlink="http://www.w3.org/1999/xlink">
    <!-- Generator: Sketch 59 (86127) - https://sketch.com -->
    <title>attachment</title>
    <desc>Created with Sketch.</desc>
    <g id="approved" stroke="none" stroke-width="1" fill="none" fill-rule="evenodd">
        <g id="1.2-disclosure-detail-text" transform="translate(-21.000000, -414.000000)" fill-rule="nonzero">
            <g id="attachment" transform="translate(21.000000, 414.000000)">
                <g id="Icon" fill="#000000">
                    <path d="M10.404,5.11 L9.389,4.096 L4.314,9.17 C3.77024176,9.71393686 3.55797529,10.5066468 3.75715931,11.2495237 C3.95634333,11.9924006 4.53671706,12.5725837 5.27965932,12.7715237 C6.02260158,12.9704637 6.81524177,12.7579369 7.359,12.214 L13.449,6.125 C14.8501464,4.72357744 14.8499225,2.45164643 13.4485,1.05050004 C12.0470774,-0.350646358 9.77514642,-0.350422517 8.374,1.051 L1.98,7.444 L1.966,7.457 C0.011,9.412 0.011,12.58 1.966,14.534 C3.921,16.488 7.089,16.488 9.044,14.534 L9.057,14.52 L9.058,14.521 L13.423,10.157 L12.408,9.143 L8.043,13.506 L8.03,13.519 C6.638,14.911 4.374,14.911 2.982,13.519 C2.31138905,12.8469216 1.93593125,11.9355153 1.9385581,10.9860936 C1.94118496,10.0366719 2.32168033,9.12735728 2.996,8.459 L2.995,8.458 L9.39,2.065 C10.229,1.225 11.595,1.225 12.435,2.065 C13.275,2.905 13.274,4.27 12.435,5.109 L6.345,11.198 C6.06182569,11.4584718 5.62366411,11.4494351 5.35147009,11.1775092 C5.07927606,10.9055834 5.06980743,10.4674309 5.33,10.184 L10.405,5.109 L10.404,5.11 Z" id="Icon-Path"></path>
                </g>
                <rect id="ViewBox" x="0" y="0" width="16" height="16"></rect>
            </g>
        </g>
    </g>
</svg>