<?xml version="1.0" encoding="UTF-8"?>
<svg width="16px" height="14px" viewBox="0 0 16 14" version="1.1" xmlns="http://www.w3.org/2000/svg" xmlns:xlink="http://www.w3.org/1999/xlink">
    <!-- Generator: Sketch 59 (86127) - https://sketch.com -->
    <title>career-services</title>
    <desc>Created with Sketch.</desc>
    <g id="approved" stroke="none" stroke-width="1" fill="none" fill-rule="evenodd">
        <g id="1.1-landing-screen-copy" transform="translate(-25.000000, -1518.000000)" fill="#000000" fill-rule="nonzero">
            <g id="career-services" transform="translate(25.000000, 1518.000000)">
                <path d="M9.84375,9.5 C9.84375,9.77625 9.62349609,10 9.3515625,10 L6.3984375,10 C6.12650391,10 5.90625,9.77625 5.90625,9.5 L5.90625,8 L0,8 L0,12.5 C0,13.3 0.6890625,14 1.4765625,14 L14.2734375,14 C15.0609375,14 15.75,13.3 15.75,12.5 L15.75,8 L9.84375,8 L9.84375,9.5 Z M14.2734375,3 L11.8125,3 L11.8125,1.5 C11.8125,0.7 11.1234375,0 10.3359375,0 L5.4140625,0 C4.6265625,0 3.9375,0.7 3.9375,1.5 L3.9375,3 L1.4765625,3 C0.6890625,3 0,3.7 0,4.5 L0,7 L15.75,7 L15.75,4.5 C15.75,3.7 15.0609375,3 14.2734375,3 Z M9.84375,3 L5.90625,3 L5.90625,2 L9.84375,2 L9.84375,3 Z" id="Shape"></path>
            </g>
        </g>
    </g>
</svg>