<?xml version="1.0" encoding="UTF-8"?>
<svg width="20px" height="12px" viewBox="0 0 20 12" version="1.1" xmlns="http://www.w3.org/2000/svg" xmlns:xlink="http://www.w3.org/1999/xlink">
    <!-- Generator: Sketch 59 (86127) - https://sketch.com -->
    <title>career-opportunities</title>
    <desc>Created with Sketch.</desc>
    <g id="approved" stroke="none" stroke-width="1" fill="none" fill-rule="evenodd">
        <g id="1.1-landing-screen-copy" transform="translate(-24.000000, -1470.000000)" fill="#2A2B30" fill-rule="nonzero">
            <path d="M37.6519878,1470 L35.0393679,1470 C34.7960506,1470 34.5618577,1470.0932 34.3824111,1470.26097 L31.3926494,1473.05709 C31.389608,1473.06019 31.3865665,1473.06641 31.383525,1473.06951 C30.8786416,1473.55417 30.887766,1474.32777 31.3196542,1474.80932 C31.7059205,1475.24117 32.5179921,1475.35612 33.025917,1474.8932 C33.0289585,1474.8901 33.0350414,1474.8901 33.0380829,1474.88699 L35.4682147,1472.61282 C35.66591,1472.42951 35.9761396,1472.44194 36.1555862,1472.64388 C36.3380742,1472.84583 36.3228668,1473.15961 36.1251715,1473.34602 L35.3313487,1474.08854 L39.7597241,1477.76078 C39.8479267,1477.83534 39.9270048,1477.91612 40,1478 L40,1471.98835 L38.3393592,1470.29204 C38.1599127,1470.10563 37.9105124,1470 37.6519878,1470 Z M41,1472 L41,1478.99961 C41,1479.55295 41.446875,1480 42,1480 L44,1480 L44,1472 L41,1472 Z M42.5,1479 C42.225,1479 42,1478.775 42,1478.5 C42,1478.225 42.225,1478 42.5,1478 C42.775,1478 43,1478.225 43,1478.5 C43,1478.775 42.775,1479 42.5,1479 Z M24,1480 L26,1480 C26.553125,1480 27,1479.55278 27,1478.99922 L27,1472 L24,1472 L24,1480 Z M25.5,1478 C25.775,1478 26,1478.225 26,1478.5 C26,1478.775 25.775,1479 25.5,1479 C25.225,1479 25,1478.775 25,1478.5 C25,1478.22187 25.225,1478 25.5,1478 Z M39.6147139,1478.58126 L34.7423431,1474.79514 L33.7633,1475.6542 C32.7940474,1476.50077 31.3091655,1476.41955 30.4443441,1475.51675 C29.5664689,1474.59833 29.6350019,1473.17697 30.5879371,1472.33978 L33.2574611,1470 L30.5226676,1470 C30.245272,1470 29.9809304,1470.10621 29.7851218,1470.29364 L28,1471.99927 L28,1478.99361 L28.5972163,1478.99361 L31.5506628,1481.55206 C32.4448554,1482.24868 33.7600366,1482.11748 34.4877919,1481.26154 L34.4943188,1481.25529 L35.0784812,1481.73949 C35.597374,1482.14559 36.364291,1482.0675 36.7852796,1481.5708 L37.8100113,1480.36499 L37.986239,1480.50244 C38.4333353,1480.84919 39.0925577,1480.78671 39.4548036,1480.35562 L39.7648339,1479.99013 C40.1303433,1479.55903 40.0618103,1478.93114 39.6147139,1478.58126 L39.6147139,1478.58126 Z" id="career-opportunities"></path>
        </g>
    </g>
</svg>