<?xml version="1.0" encoding="UTF-8"?>
<svg width="20px" height="14px" viewBox="0 0 20 14" version="1.1" xmlns="http://www.w3.org/2000/svg" xmlns:xlink="http://www.w3.org/1999/xlink">
    <!-- Generator: Sketch 59 (86127) - https://sketch.com -->
    <title>externship</title>
    <desc>Created with Sketch.</desc>
    <g id="approved" stroke="none" stroke-width="1" fill="none" fill-rule="evenodd">
        <g id="1.1-landing-screen-copy" transform="translate(-24.000000, -1418.000000)" fill="#000000" fill-rule="nonzero">
            <g id="externship" transform="translate(24.000000, 1418.000000)">
                <path d="M3,6 C4.103125,6 5,5.103125 5,4 C5,2.896875 4.103125,2 3,2 C1.896875,2 1,2.896875 1,4 C1,5.103125 1.896875,6 3,6 Z M17,6 C18.103125,6 19,5.103125 19,4 C19,2.896875 18.103125,2 17,2 C15.896875,2 15,2.896875 15,4 C15,5.103125 15.896875,6 17,6 Z M18,7 L16,7 C15.45,7 14.953125,7.221875 14.590625,7.58125 C15.85,8.271875 16.74375,9.51875 16.9375,11 L19,11 C19.553125,11 20,10.553125 20,10 L20,9 C20,7.896875 19.103125,7 18,7 Z M10,7 C11.934375,7 13.5,5.434375 13.5,3.5 C13.5,1.565625 11.934375,0 10,0 C8.065625,0 6.5,1.565625 6.5,3.5 C6.5,5.434375 8.065625,7 10,7 Z M12.4,8 L12.140625,8 C11.490625,8.3125 10.76875,8.5 10,8.5 C9.23125,8.5 8.5125,8.3125 7.859375,8 L7.6,8 C5.6125,8 4,9.6125 4,11.6 L4,12.5 C4,13.328125 4.671875,14 5.5,14 L14.5,14 C15.328125,14 16,13.328125 16,12.5 L16,11.6 C16,9.6125 14.3875,8 12.4,8 Z M5.409375,7.58125 C5.046875,7.221875 4.55,7 4,7 L2,7 C0.896875,7 0,7.896875 0,9 L0,10 C0,10.553125 0.446875,11 1,11 L3.059375,11 C3.25625,9.51875 4.15,8.271875 5.409375,7.58125 Z" id="Shape"></path>
            </g>
        </g>
    </g>
</svg>