<?xml version="1.0" encoding="UTF-8"?>
<svg width="17px" height="17px" viewBox="0 0 17 17" version="1.1" xmlns="http://www.w3.org/2000/svg" xmlns:xlink="http://www.w3.org/1999/xlink">
    <!-- Generator: Sketch 59 (86127) - https://sketch.com -->
    <title>law icon</title>
    <desc>Created with Sketch.</desc>
    <g id="approved" stroke="none" stroke-width="1" fill="none" fill-rule="evenodd">
        <g id="1.7-nav-Law" transform="translate(-35.000000, -357.000000)" fill="#5D5F6A">
            <path d="M43.5,360.642857 C42.4921429,360.642857 41.6785714,359.829286 41.6785714,358.821429 C41.6785714,357.813571 42.4921429,357 43.5,357 C44.5078571,357 45.3214286,357.813571 45.3214286,358.821429 C45.3214286,359.829286 44.5078571,360.642857 43.5,360.642857 Z M52,367.928571 C52,369.276429 50.9192857,370.357143 49.5714286,370.357143 L48.3571429,370.357143 C47.0092857,370.357143 45.9285714,369.276429 45.9285714,367.928571 L48.3571429,363.071429 L47.1428571,363.071429 C46.475,363.071429 45.9285714,362.525 45.9285714,361.857143 L44.7142857,361.857143 L44.7142857,371.571429 C45.2242857,371.571429 45.9285714,372.117857 45.9285714,372.785714 L47.1428571,372.785714 C47.6528571,372.785714 48.3571429,373.332143 48.3571429,374 L38.6428571,374 C38.6428571,373.332143 39.3471429,372.785714 39.8571429,372.785714 L41.0714286,372.785714 C41.0714286,372.117857 41.7757143,371.571429 42.2857143,371.571429 L42.3221429,371.571429 L42.2857143,361.857143 L41.0714286,361.857143 C41.0714286,362.525 40.525,363.071429 39.8571429,363.071429 L38.6428571,363.071429 L41.0714286,367.928571 C41.0714286,369.276429 39.9907143,370.357143 38.6428571,370.357143 L37.4285714,370.357143 C36.0807143,370.357143 35,369.276429 35,367.928571 L37.4285714,363.071429 L36.2142857,363.071429 L36.2142857,361.857143 L39.8571429,361.857143 C39.8571429,361.189286 40.4035714,360.642857 41.0714286,360.642857 L45.9285714,360.642857 C46.5964286,360.642857 47.1428571,361.189286 47.1428571,361.857143 L50.7857143,361.857143 L50.7857143,363.071429 L49.5714286,363.071429 L52,367.928571 Z M38.0357143,364.285714 L36.2142857,367.928571 L39.8571429,367.928571 L38.0357143,364.285714 Z M50.7857143,367.928571 L48.9642857,364.285714 L47.1428571,367.928571 L50.7857143,367.928571 Z" id="law-icon"></path>
        </g>
    </g>
</svg>